<?xml version="1.0" encoding="utf-8"?>
<!-- Generator: Adobe Illustrator 22.1.0, SVG Export Plug-In . SVG Version: 6.00 Build 0)  -->
<svg version="1.1" id="Layer_1" xmlns:x="&ns_extend;" xmlns:i="&ns_ai;" xmlns:graph="&ns_graphs;"
	 xmlns="http://www.w3.org/2000/svg" xmlns:xlink="http://www.w3.org/1999/xlink" x="0px" y="0px" viewBox="0 0 85 85"
	 style="enable-background:new 0 0 85 85;" xml:space="preserve">
<style type="text/css">
	.Arched_x0020_Green{fill:url(#SVGID_1_);stroke:#FFFFFF;stroke-width:0.25;stroke-miterlimit:1;}
	.st0{fill:#2062AF;}
	.st1{fill:#3C9CD7;}
	.st2{fill:#FFFFFF;}
	.st3{fill:#EBEBEB;}
	.st4{fill:#E44F26;}
	.st5{fill:#F1672A;}
	.st6{fill:#573E7D;}
	.st7{fill:#48BA7F;}
	.st8{fill:#8162AA;}
	.st9{fill:#F05023;}
	.st10{fill:#F37264;}
	.st11{fill:#47B8E9;}
	.st12{fill:#1B1F23;}
	.st13{fill:#2A101F;}
	.st14{fill:#DB4C9B;}
	.st15{fill:url(#SVGID_2_);}
	.st16{fill:#34C5EE;}
	.st17{fill:url(#SVGID_3_);}
	.st18{fill:#F57F22;}
</style>
<metadata>
	<sfw  xmlns="&ns_sfw;">
		<slices></slices>
		<sliceSourceBounds  bottomLeftOrigin="true" height="85" width="736.7" x="-263.1" y="446.1"></sliceSourceBounds>
	</sfw>
</metadata>
<linearGradient id="SVGID_1_" gradientUnits="userSpaceOnUse" x1="175.0679" y1="531.1343" x2="175.775" y2="530.4272">
	<stop  offset="0" style="stop-color:#20AC4B"/>
	<stop  offset="0.9831" style="stop-color:#19361A"/>
</linearGradient>
<g>
	<polygon class="st0" points="-19.8,76.6 -50.4,84.8 -81,76.6 -88.1,0 -12.7,0 	"/>
	<polygon class="st1" points="-50.4,6.2 -50.4,78.2 -50.3,78.2 -25.5,71.6 -19.8,6.2 	"/>
	<polygon class="st2" points="-50.4,25.3 -72.3,34.5 -71.6,43.5 -50.4,34.4 -27.9,24.8 -26.9,15.6 	"/>
	<polygon class="st3" points="-72.3,34.5 -71.6,43.5 -50.4,34.4 -50.4,25.3 	"/>
	<polygon class="st2" points="-26.9,15.9 -50.4,25.7 -50.4,34.8 -27.9,25.1 	"/>
	<polygon class="st2" points="-72.3,34.5 -71.6,43.5 -39,43.6 -39.8,55.7 -50.5,58.7 -60.8,56.1 -61.4,48.6 -70.9,48.6 -69.7,63 
		-50.4,68.7 -31.1,63.1 -28.7,34.5 	"/>
	<g>
		<polygon class="st3" points="-50.4,34.5 -72.3,34.5 -71.6,43.5 -50.4,43.6 		"/>
		<polygon class="st3" points="-50.4,58.6 -50.5,58.7 -60.8,56.1 -61.4,48.6 -71,48.6 -69.7,63 -50.4,68.7 		"/>
	</g>
	<polygon class="st2" points="-74.3,15.9 -26.9,15.9 -27.9,25.1 -73.1,25.1 	"/>
	<polygon class="st3" points="-50.4,15.6 -74.3,15.6 -73.1,24.8 -50.4,24.8 	"/>
</g>
<g>
	<polygon class="st4" points="11.9,76.4 5.1,0.1 79.9,0.1 73.1,76.4 42.5,84.9 	"/>
	<polygon class="st5" points="42.5,78.4 67.3,71.6 73.1,6.4 42.5,6.4 	"/>
	<polygon class="st3" points="42.5,34.7 30.1,34.7 29.3,25.1 42.5,25.1 42.5,15.7 42.5,15.7 19.1,15.7 19.3,18.2 21.6,44 42.5,44 	
		"/>
	<polygon class="st3" points="42.5,59 42.5,59 32.1,56.2 31.4,48.7 26.3,48.7 22,48.7 23.3,63.4 42.5,68.7 42.5,68.7 	"/>
	<polygon class="st2" points="42.5,34.7 42.5,44 54,44 52.9,56.2 42.5,59 42.5,68.7 61.7,63.4 61.8,61.8 64,37.2 64.2,34.7 
		61.7,34.7 	"/>
	<polygon class="st2" points="42.5,15.7 42.5,21.5 42.5,25.1 42.5,25.1 65.1,25.1 65.1,25.1 65.1,25.1 65.3,23 65.7,18.2 65.9,15.7 
			"/>
</g>
<g>
	<path class="st6" d="M92.5,74c0,6.1,4.9,11,11,11h63c6.1,0,11-4.9,11-11V11c0-6.1-4.9-11-11-11h-63c-6.1,0-11,4.9-11,11V74z"/>
	<path class="st2" d="M127.8,37.6v-12h10.6c1,0,2,0.1,2.9,0.3c0.9,0.2,1.8,0.5,2.5,0.9s1.3,1,1.7,1.8s0.6,1.8,0.6,3
		c0,2.2-0.6,3.7-1.9,4.7c-1.3,1-3,1.4-5,1.4H127.8L127.8,37.6z M116.5,16.8v51.4h24.9c2.3,0,4.6-0.3,6.7-0.9s4.1-1.5,5.8-2.7
		s3.1-2.7,4.1-4.6s1.5-4.1,1.5-6.7c0-3.2-0.8-6-2.3-8.2c-1.6-2.3-3.9-3.9-7.1-4.8c2.3-1.1,4-2.5,5.2-4.3c1.2-1.7,1.8-3.9,1.8-6.5
		c0-2.4-0.4-4.4-1.2-6.1c-0.8-1.6-1.9-2.9-3.3-3.9c-1.4-1-3.2-1.7-5.2-2.1c-2-0.4-4.3-0.6-6.7-0.6H116.5L116.5,16.8z M127.8,59.4
		V45.3h12.3c2.4,0,4.4,0.6,5.9,1.7c1.5,1.1,2.2,3,2.2,5.7c0,1.3-0.2,2.4-0.7,3.3c-0.5,0.9-1.1,1.5-1.8,2.1c-0.8,0.5-1.7,0.9-2.7,1.1
		c-1,0.2-2.1,0.3-3.2,0.3H127.8L127.8,59.4z"/>
</g>
<g>
	<path id="path0_fill_1_" class="st7" d="M219.9,85c7.8,0,14.2-6.3,14.2-14.2V56.7h-14.2c-7.8,0-14.2,6.3-14.2,14.2S212,85,219.9,85
		z"/>
	<path id="path1_fill_3_" class="st8" d="M205.7,42.5c0-7.8,6.3-14.2,14.2-14.2H234v28.3h-14.2C212,56.7,205.7,50.3,205.7,42.5z"/>
	<path id="path1_fill_2_" class="st9" d="M205.7,14.2C205.7,6.4,212,0,219.9,0H234v28.3h-14.2C212,28.4,205.7,22,205.7,14.2z"/>
	<path id="path2_fill_1_" class="st10" d="M234,0h14.2c7.8,0,14.2,6.3,14.2,14.2s-6.3,14.2-14.2,14.2H234V0z"/>
	<path id="path3_fill_1_" class="st11" d="M262.4,42.5c0,7.8-6.3,14.2-14.2,14.2c-7.8,0-14.2-6.3-14.2-14.2s6.3-14.2,14.2-14.2
		C256,28.4,262.4,34.7,262.4,42.5z"/>
</g>
<g>
	<g>
		<path class="st12" d="M607.3,2.2c-22.8,0-41.3,18.5-41.3,41.3c0,18.3,11.8,33.8,28.3,39.2c2.1,0.4,2.8-0.9,2.8-2
			c0-1,0-4.2-0.1-7.7c-11.5,2.5-13.9-4.9-13.9-4.9c-1.9-4.8-4.6-6-4.6-6c-3.7-2.6,0.3-2.5,0.3-2.5c4.2,0.3,6.3,4.3,6.3,4.3
			c3.7,6.3,9.7,4.5,12,3.4c0.4-2.7,1.4-4.5,2.6-5.5c-9.2-1-18.8-4.6-18.8-20.4c0-4.5,1.6-8.2,4.3-11.1c-0.4-1-1.8-5.2,0.4-10.9
			c0,0,3.5-1.1,11.4,4.2c3.3-0.9,6.8-1.4,10.3-1.4c3.5,0,7.1,0.5,10.4,1.4c7.9-5.3,11.4-4.2,11.4-4.2c2.2,5.7,0.8,9.9,0.4,10.9
			c2.6,2.9,4.3,6.6,4.3,11.1c0,15.9-9.7,19.4-18.9,20.4c1.5,1.3,2.8,3.8,2.8,7.7c0,5.5,0,10,0,11.3c0,1.1,0.7,2.4,2.8,2
			c16.4-5.5,28.2-21,28.2-39.2C648.6,20.7,630.1,2.2,607.3,2.2z M581.4,61.1c-0.1,0.2-0.4,0.3-0.7,0.1c-0.3-0.1-0.5-0.4-0.4-0.6
			c0.1-0.2,0.4-0.3,0.7-0.1C581.3,60.6,581.5,60.9,581.4,61.1z M583.4,62.9c-0.2,0.2-0.6,0.1-0.8-0.2c-0.3-0.3-0.3-0.7-0.1-0.9
			c0.2-0.2,0.6-0.1,0.8,0.2C583.6,62.3,583.7,62.7,583.4,62.9z M584.8,65.2c-0.3,0.2-0.7,0-0.9-0.4c-0.3-0.4-0.3-0.8,0-1
			c0.3-0.2,0.7,0,0.9,0.3C585.1,64.6,585.1,65,584.8,65.2z M587.2,67.9c-0.2,0.2-0.7,0.2-1.1-0.2c-0.4-0.3-0.5-0.8-0.2-1.1
			c0.2-0.3,0.7-0.2,1.1,0.2C587.3,67.2,587.4,67.7,587.2,67.9z M590.2,68.8c-0.1,0.3-0.6,0.5-1,0.3c-0.5-0.1-0.8-0.5-0.7-0.8
			c0.1-0.3,0.6-0.5,1-0.3C590,68.1,590.3,68.5,590.2,68.8z M593.7,69.2c0,0.3-0.4,0.6-0.9,0.6c-0.5,0-0.9-0.3-0.9-0.6
			c0-0.3,0.4-0.6,0.9-0.6C593.3,68.6,593.7,68.9,593.7,69.2z M597.1,69.1c0.1,0.3-0.3,0.7-0.8,0.8c-0.5,0.1-0.9-0.1-1-0.4
			c-0.1-0.3,0.3-0.7,0.8-0.8C596.6,68.5,597.1,68.7,597.1,69.1z"/>
	</g>
</g>
<g>
	<path class="st13" d="M476.9,4.8h77.6v75.5h-77.6V4.8z"/>
	<path class="st14" d="M473.4,1.2v82.6h84.7V1.2H473.4z M476.9,4.8h77.6v75.5h-77.6V4.8z"/>
	<path class="st14" d="M535.3,38.4c-0.5-0.2-1.2-0.4-2-0.4c-4.4,0-7.4,3.4-7.4,9.1c0,6.5,3,9.1,7,9.1c0.8,0,1.8-0.1,2.4-0.4
		L535.3,38.4L535.3,38.4z M519.5,47.4c0-8.2,5.3-14.6,14-14.6c0.7,0,1.1,0,1.8,0.1v-9.2c0-0.2,0.2-0.4,0.4-0.4h5.7
		c0.3,0,0.4,0.1,0.4,0.3v32.3c0,1,0,2.2,0.2,3.5c0,0.2,0,0.3-0.2,0.4c-3,1.4-6.1,2-9,2C524.9,61.8,519.5,57,519.5,47.4L519.5,47.4z
		 M507.4,41.7l9.9,19.2c0.2,0.3,0.1,0.6-0.2,0.6h-6.1c-0.4,0-0.6-0.1-0.7-0.5c-2.3-4.7-4.6-9.5-6.9-14.5h-0.1
		c-2.1,4.7-4.4,9.9-6.7,14.5c-0.2,0.3-0.4,0.4-0.6,0.4H490c-0.4,0-0.4-0.3-0.2-0.5l9.7-18.6l-9.4-18.5c-0.2-0.3,0-0.5,0.2-0.5h6.1
		c0.4,0,0.5,0.1,0.6,0.4c2.2,4.7,4.5,9.3,6.6,14h0.1c2-4.7,4.3-9.4,6.5-14c0.2-0.3,0.3-0.5,0.6-0.5h5.7c0.3,0,0.4,0.2,0.2,0.5
		L507.4,41.7L507.4,41.7z"/>
</g>
<g>
	
		<radialGradient id="SVGID_2_" cx="-599.4744" cy="-689.0275" r="0.1078" gradientTransform="matrix(545.6736 0 0 528.3113 327531.1563 364042.75)" gradientUnits="userSpaceOnUse">
		<stop  offset="0" style="stop-color:#35374E;stop-opacity:0.98"/>
		<stop  offset="1" style="stop-color:#131124"/>
	</radialGradient>
	<path class="st15" d="M388.3,4.9h77.4v75.3h-77.4V4.9z"/>
	<path class="st16" d="M388.3,4.9h77.4v75.3h-77.4V4.9z M384.8,83.7h84.4V1.4h-84.4V83.7z M441.7,35.1c-2.8,0-3.7,1.4-3.7,2.6
		c0,1.3,0.6,2.1,4.4,4.1c5.5,2.7,7.2,5.2,7.2,9c0,5.6-4.3,8.7-10.1,8.7c-3.1,0-5.7-0.6-7.2-1.5c-0.3-0.1-0.3-0.3-0.3-0.6v-5.2
		c0-0.4,0.2-0.5,0.4-0.3c2.2,1.4,4.8,2.1,7.1,2.1c2.8,0,3.9-1.2,3.9-2.7c0-1.3-0.8-2.4-4.4-4.2c-5-2.4-7.1-4.8-7.1-8.9
		c0-4.5,3.6-8.3,9.7-8.3c3,0,5.1,0.5,6.3,1c0.3,0.2,0.4,0.5,0.4,0.7v4.8c0,0.3-0.2,0.5-0.5,0.4C446.3,35.7,444,35.1,441.7,35.1
		L441.7,35.1z M411.5,39.3c0.8,0.1,1.4,0.1,2.8,0.1c4.1,0,8-1.4,8-7c0-4.5-2.8-6.7-7.5-6.7c-1.4,0-2.7,0.1-3.4,0.1L411.5,39.3
		L411.5,39.3z M405.2,20.6c0-0.3,0.5-0.4,0.8-0.4c2.2-0.1,5.6-0.2,9.1-0.2c9.7,0,13.5,5.3,13.5,12.2c0,8.9-6.5,12.8-14.4,12.8
		c-1.3,0-1.8-0.1-2.7-0.1v13.5c0,0.3-0.1,0.4-0.4,0.4h-5.4c-0.3,0-0.4-0.1-0.4-0.4V20.6L405.2,20.6z"/>
</g>
<g>
	
		<radialGradient id="SVGID_3_" cx="-599.6384" cy="-689.0275" r="0.1078" gradientTransform="matrix(545.6736 0 0 528.3113 327531.1563 364042.75)" gradientUnits="userSpaceOnUse">
		<stop  offset="0" style="stop-color:#433426;stop-opacity:0.98"/>
		<stop  offset="1" style="stop-color:#1F110A"/>
	</radialGradient>
	<path class="st17" d="M298.8,4.9h77.4v75.3h-77.4V4.9z"/>
	<path class="st18" d="M298.8,4.9h77.4v75.3h-77.4V4.9z M295.3,83.7h84.5V1.3h-84.5V83.7z M350.6,30.7c0-0.3,0.1-0.4,0.4-0.4h5.5
		c0.3,0,0.4,0.1,0.4,0.4v27.8c0,0.3-0.1,0.4-0.4,0.4h-5.5c-0.4,0-0.5-0.2-0.5-0.5L350.6,30.7L350.6,30.7L350.6,30.7z M350.2,22.7
		c0-2.2,1.6-3.6,3.6-3.6c2.1,0,3.6,1.4,3.6,3.6c0,2.3-1.5,3.6-3.7,3.6C351.7,26.3,350.2,25,350.2,22.7z M334.4,42.3
		c-1-3.9-3.3-12.4-4.2-16.5h-0.1c-0.7,4.1-2.6,11.1-4.1,16.5H334.4L334.4,42.3z M324.6,48l-2.8,10.6c-0.1,0.3-0.2,0.4-0.5,0.4h-5.2
		c-0.4,0-0.4-0.1-0.4-0.5l10-35c0.2-0.6,0.3-1.2,0.4-2.9c0-0.3,0.1-0.4,0.3-0.4h7.4c0.3,0,0.4,0.1,0.4,0.4l11.2,38
		c0.1,0.3,0,0.5-0.3,0.5h-5.8c-0.3,0-0.5-0.1-0.5-0.3L335.9,48L324.6,48L324.6,48z"/>
</g>
</svg>
