<svg id="Layer_1" data-name="Layer 1" xmlns="http://www.w3.org/2000/svg" viewBox="0 0 85.04 85.04"><defs><style>.cls-1{fill:#2062af;}.cls-2{fill:#3c9cd7;}.cls-3{fill:#fff;}.cls-4{fill:#ebebeb;}</style></defs><title>logos</title><polygon class="cls-1" points="73.25 76.55 42.63 84.8 12.01 76.55 4.94 0 80.31 0 73.25 76.55"/><polygon class="cls-2" points="42.63 6.2 42.63 78.22 42.7 78.24 67.48 71.57 73.2 6.2 42.63 6.2"/><polygon class="cls-3" points="42.6 25.34 20.68 34.47 21.41 43.51 42.6 34.45 65.14 24.81 66.07 15.56 42.6 25.34"/><polygon class="cls-4" points="20.68 34.47 21.41 43.51 42.6 34.45 42.6 25.34 20.68 34.47"/><polygon class="cls-3" points="66.07 15.9 42.6 25.68 42.6 34.78 65.14 25.14 66.07 15.9"/><polygon class="cls-3" points="20.72 34.47 21.44 43.51 53.96 43.61 53.23 55.66 42.53 58.67 32.25 56.07 31.62 48.59 22.07 48.59 23.31 63.03 42.63 68.75 61.85 63.14 64.34 34.47 20.72 34.47"/><polygon class="cls-4" points="42.6 34.47 20.68 34.47 21.41 43.51 42.6 43.57 42.6 34.47"/><polygon class="cls-4" points="42.6 58.64 42.5 58.67 32.21 56.07 31.59 48.59 22.03 48.59 23.28 63.03 42.6 68.75 42.6 58.64"/><polygon class="cls-3" points="18.71 15.9 66.07 15.9 65.14 25.14 19.85 25.14 18.71 15.9"/><polygon class="cls-4" points="42.6 15.56 18.71 15.56 19.85 24.81 42.6 24.81 42.6 15.56"/></svg>