<svg id="Layer_1" data-name="Layer 1" xmlns="http://www.w3.org/2000/svg" xmlns:xlink="http://www.w3.org/1999/xlink" viewBox="0 0 85.04 85.04"><defs><style>.cls-1{fill:url(#Gradiente_sem_nome_2);}.cls-2{fill:#f57f22;}</style><radialGradient id="Gradiente_sem_nome_2" cx="-894.63" cy="-689.03" r="0.11" gradientTransform="translate(488207.06 364042.74) scale(545.67 528.31)" gradientUnits="userSpaceOnUse"><stop offset="0" stop-color="#433426" stop-opacity="0.98"/><stop offset="1" stop-color="#1f110a"/></radialGradient></defs><title>logos</title><path class="cls-1" d="M3.8,4.86H81.22V80.18H3.8Z"/><path class="cls-2" d="M3.8,4.86H81.22V80.18H3.8ZM.28,83.7H84.76V1.34H.28Zm55.33-53c0-.28.1-.42.43-.42h5.53c.28,0,.42.1.42.42V58.48c0,.29-.07.42-.42.42H56.1c-.35,0-.45-.17-.45-.45V30.7Zm-.39-8a3.59,3.59,0,0,1,7.18,0,3.36,3.36,0,0,1-3.66,3.59A3.3,3.3,0,0,1,55.22,22.7ZM39.39,42.27c-1-3.9-3.32-12.41-4.19-16.54h-.07c-.75,4.11-2.61,11.08-4.08,16.54ZM29.61,48,26.84,58.53c-.07.29-.17.36-.53.36H21.14c-.36,0-.42-.11-.36-.53l10-35a11.56,11.56,0,0,0,.36-2.93c0-.25.1-.35.28-.35h7.4c.25,0,.35.07.42.35l11.2,38c.06.29,0,.46-.29.46H44.31c-.28,0-.45-.07-.52-.33L40.9,48Z"/></svg>