<svg id="Layer_1" data-name="Layer 1" xmlns="http://www.w3.org/2000/svg" viewBox="0 0 85.04 85.04"><defs><style>.cls-1{fill:#1b1f23;}</style></defs><title>logos</title><path class="cls-1" d="M42.52,2.21A41.34,41.34,0,0,0,29.45,82.76c2.07.38,2.83-.9,2.83-2s0-4.24-.06-7.7C20.72,75.57,18.3,68.2,18.3,68.2c-1.88-4.78-4.59-6.05-4.59-6.05C10,59.59,14,59.64,14,59.64c4.15.29,6.34,4.26,6.34,4.26,3.68,6.32,9.67,4.49,12,3.43A8.84,8.84,0,0,1,35,61.81c-9.18-1.05-18.83-4.59-18.83-20.43a16,16,0,0,1,4.26-11.09c-.43-1-1.85-5.25.4-10.94,0,0,3.47-1.11,11.37,4.24a39.19,39.19,0,0,1,20.69,0c7.89-5.35,11.36-4.24,11.36-4.24,2.25,5.69.83,9.9.4,10.94a16,16,0,0,1,4.26,11.09c0,15.88-9.67,19.37-18.88,20.39,1.49,1.29,2.81,3.8,2.81,7.66,0,5.53,0,10,0,11.34,0,1.1.74,2.39,2.84,2A41.33,41.33,0,0,0,42.52,2.21ZM16.67,61.09c-.09.2-.41.26-.71.12s-.47-.41-.37-.62.41-.27.71-.13S16.77,60.88,16.67,61.09Zm2,1.81c-.19.18-.58.1-.84-.19s-.32-.68-.12-.86a.64.64,0,0,1,.85.19C18.86,62.33,18.91,62.71,18.7,62.9Zm1.4,2.32c-.26.18-.67,0-.93-.36a.71.71,0,0,1,0-1c.26-.18.66,0,.92.35S20.36,65,20.1,65.22Zm2.36,2.69c-.23.25-.71.18-1.07-.16a.8.8,0,0,1-.23-1.06c.23-.25.71-.18,1.07.16S22.7,67.66,22.46,67.91Zm3,.91c-.1.32-.56.47-1,.33s-.77-.52-.68-.85.57-.48,1-.33S25.6,68.49,25.5,68.82ZM29,69.2c0,.34-.38.62-.87.63s-.9-.27-.9-.6.39-.62.88-.63S29,68.86,29,69.2Zm3.41-.13c.06.33-.28.67-.77.76s-.92-.11-1-.44.28-.69.76-.77S32.32,68.73,32.38,69.07Z"/></svg>