<svg id="Layer_1" data-name="Layer 1" xmlns="http://www.w3.org/2000/svg" viewBox="0 0 85.04 85.04"><defs><style>.cls-1{fill:#2a101f;}.cls-2{fill:#db4c9b;}</style></defs><title>logos</title><path class="cls-1" d="M3.7,4.76H81.34V80.28H3.7Z"/><path class="cls-2" d="M.17,1.23V83.81h84.7V1.23ZM3.7,4.76H81.34V80.28H3.7Z"/><path class="cls-2" d="M62,38.39A4.81,4.81,0,0,0,60,38c-4.45,0-7.41,3.42-7.41,9.1,0,6.5,3,9.11,7,9.11A6.7,6.7,0,0,0,62,55.86V38.39Zm-15.81,9c0-8.23,5.29-14.65,14-14.65a15.91,15.91,0,0,1,1.84.07V23.67a.35.35,0,0,1,.35-.35h5.68c.28,0,.35.11.35.28V55.86a24.72,24.72,0,0,0,.18,3.46c0,.25,0,.28-.21.39a21.06,21.06,0,0,1-9,2c-7.65,0-13.12-4.73-13.12-14.32Zm-12-5.72,9.88,19.16c.18.28.07.57-.21.57H37.7A.7.7,0,0,1,37,61c-2.26-4.66-4.55-9.5-6.92-14.51H30c-2.11,4.73-4.44,9.88-6.7,14.54a.7.7,0,0,1-.64.39H16.77c-.35,0-.38-.28-.21-.49l9.67-18.6L16.88,23.82a.31.31,0,0,1,.25-.53H23.2c.35,0,.53.07.63.38,2.23,4.7,4.48,9.32,6.6,14h.07c2-4.66,4.31-9.35,6.46-14,.18-.28.28-.45.64-.45h5.68c.28,0,.39.21.21.53L34.17,41.71Z"/></svg>