<svg id="Layer_1" data-name="Layer 1" xmlns="http://www.w3.org/2000/svg" viewBox="0 0 85.04 85.04"><defs><style>.cls-1{fill:#e44f26;}.cls-2{fill:#f1672a;}.cls-3{fill:#ebebeb;}.cls-4{fill:#fff;}</style></defs><title>logos</title><polygon class="cls-1" points="11.95 76.43 5.14 0.13 79.89 0.13 73.08 76.42 42.47 84.91 11.95 76.43"/><polygon class="cls-2" points="42.52 78.42 67.25 71.56 73.07 6.37 42.52 6.37 42.52 78.42"/><polygon class="cls-3" points="42.52 34.67 30.14 34.67 29.28 25.09 42.52 25.09 42.52 15.73 42.49 15.73 19.05 15.73 19.28 18.24 21.58 44.03 42.52 44.03 42.52 34.67"/><polygon class="cls-3" points="42.52 58.97 42.48 58.98 32.06 56.17 31.39 48.71 26.33 48.71 22 48.71 23.31 63.4 42.48 68.72 42.52 68.71 42.52 58.97"/><polygon class="cls-4" points="42.49 34.67 42.49 44.03 54.01 44.03 52.92 56.16 42.49 58.98 42.49 68.72 61.67 63.4 61.81 61.82 64.01 37.18 64.24 34.67 61.72 34.67 42.49 34.67"/><polygon class="cls-4" points="42.49 15.73 42.49 21.54 42.49 25.06 42.49 25.09 65.06 25.09 65.06 25.09 65.09 25.09 65.28 22.98 65.7 18.24 65.93 15.73 42.49 15.73"/></svg>