<svg id="Layer_1" data-name="Layer 1" xmlns="http://www.w3.org/2000/svg" viewBox="0 0 85.04 85.04"><defs><style>.cls-1{fill:#573e7d;}.cls-2{fill:#fff;}</style></defs><title>logos</title><path class="cls-1" d="M0,74A11,11,0,0,0,11,85H74A11,11,0,0,0,85,74V11A11,11,0,0,0,74,0H11A11,11,0,0,0,0,11Z"/><path class="cls-2" d="M35.27,37.62v-12H45.86a16.36,16.36,0,0,1,2.92.25,7.31,7.31,0,0,1,2.48.9A4.9,4.9,0,0,1,53,28.54a5.93,5.93,0,0,1,.65,3q0,3.24-1.94,4.68a8.15,8.15,0,0,1-5,1.44ZM24,16.8V68.24H48.89a26.1,26.1,0,0,0,6.73-.87,17.91,17.91,0,0,0,5.84-2.66,13.17,13.17,0,0,0,4.07-4.65A14.13,14.13,0,0,0,67,53.33a14.26,14.26,0,0,0-2.34-8.25,12.36,12.36,0,0,0-7.1-4.79A12.87,12.87,0,0,0,62.83,36a11.32,11.32,0,0,0,1.76-6.49A13.68,13.68,0,0,0,63.4,23.5a9.84,9.84,0,0,0-3.35-3.92,14.35,14.35,0,0,0-5.18-2.13,32.2,32.2,0,0,0-6.7-.65ZM35.27,59.45V45.33H47.59A9.53,9.53,0,0,1,53.5,47q2.23,1.69,2.23,5.66A7.13,7.13,0,0,1,55.05,56a5.38,5.38,0,0,1-1.84,2,7.57,7.57,0,0,1-2.67,1.08,14.75,14.75,0,0,1-3.17.33Z"/></svg>