<svg id="Layer_1" data-name="Layer 1" xmlns="http://www.w3.org/2000/svg" viewBox="0 0 85.04 85.04"><defs><style>.cls-1{fill:#48ba7f;}.cls-2{fill:#8162aa;}.cls-3{fill:#f05023;}.cls-4{fill:#f37264;}.cls-5{fill:#47b8e9;}</style></defs><title>logos</title><path id="path0_fill" data-name="path0 fill" class="cls-1" d="M28.35,85A14.18,14.18,0,0,0,42.52,70.85V56.69H28.35a14.17,14.17,0,0,0,0,28.33Z"/><path id="path1_fill" data-name="path1 fill" class="cls-2" d="M14.19,42.52A14.17,14.17,0,0,1,28.35,28.35H42.52V56.69H28.35A14.17,14.17,0,0,1,14.19,42.52Z"/><path id="path1_fill-2" data-name="path1 fill" class="cls-3" d="M14.19,14.19A14.17,14.17,0,0,1,28.35,0H42.52V28.35H28.35A14.16,14.16,0,0,1,14.19,14.19Z"/><path id="path2_fill" data-name="path2 fill" class="cls-4" d="M42.52,0H56.69a14.17,14.17,0,0,1,0,28.33H42.52Z"/><path id="path3_fill" data-name="path3 fill" class="cls-5" d="M70.85,42.52A14.17,14.17,0,1,1,56.69,28.35,14.17,14.17,0,0,1,70.85,42.52Z"/></svg>