<svg id="Layer_1" data-name="Layer 1" xmlns="http://www.w3.org/2000/svg" xmlns:xlink="http://www.w3.org/1999/xlink" viewBox="0 0 85.04 85.04"><defs><style>.cls-1{fill:url(#Gradiente_sem_nome_3);}.cls-2{fill:#34c5ee;}</style><radialGradient id="Gradiente_sem_nome_3" cx="-983.97" cy="-689.03" r="0.11" gradientTransform="translate(536955.34 364042.74) scale(545.67 528.31)" gradientUnits="userSpaceOnUse"><stop offset="0" stop-color="#35374e" stop-opacity="0.98"/><stop offset="1" stop-color="#131124"/></radialGradient></defs><title>logos</title><path class="cls-1" d="M3.83,4.88H81.22V80.16H3.83Z"/><path class="cls-2" d="M3.83,4.88H81.22V80.16H3.83ZM.32,83.68h84.4V1.36H.32ZM57.24,35.14c-2.78,0-3.73,1.41-3.73,2.58s.63,2.14,4.37,4.07c5.51,2.67,7.24,5.25,7.24,9,0,5.63-4.3,8.66-10.1,8.66A15.3,15.3,0,0,1,47.81,58c-.25-.1-.28-.29-.28-.56V52.2c0-.36.17-.46.42-.29A13.09,13.09,0,0,0,55,54C57.79,54,59,52.82,59,51.25,59,50,58.15,48.86,54.6,47c-5-2.39-7.07-4.8-7.07-8.86,0-4.54,3.55-8.31,9.71-8.31a16.28,16.28,0,0,1,6.29,1,.76.76,0,0,1,.35.71v4.82c0,.29-.17.46-.52.36a12,12,0,0,0-6.12-1.58ZM27,39.32c.81.07,1.44.07,2.84.07,4.11,0,8-1.44,8-7,0-4.46-2.78-6.71-7.46-6.71-1.41,0-2.74.07-3.39.1l0,13.58ZM20.72,20.65c0-.26.49-.42.77-.42,2.25-.11,5.6-.17,9.07-.17,9.74,0,13.55,5.34,13.55,12.16C44.11,41.15,37.63,45,29.68,45c-1.34,0-1.79-.07-2.74-.07v13.5c0,.29-.1.42-.42.42H21.14c-.29,0-.42-.1-.42-.42V20.65Z"/></svg>